<svg xmlns="http://www.w3.org/2000/svg" width="643.62" height="240" viewBox="0 0 643.62 240"><path d="M30.134 153.442l-11.898-4.158c-3.096-1.066-5.306-2.345-6.628-3.847-1.322-1.498-1.983-3.474-1.983-5.924 0-2.805.943-5.062 2.83-6.772 1.887-1.708 4.378-2.564 7.473-2.564 2.58 0 5.079.645 7.497 1.935 2.419 1.29 4.612 3.129 6.58 5.514v5.03h8.126V122.97H34.1v4.548a21.43 21.43 0 0 0-6.894-4.281c-2.563-.983-5.28-1.476-8.149-1.476-5.514 0-10.07 1.758-13.665 5.273C1.797 130.548 0 134.998 0 140.382c0 4.226 1.185 7.812 3.555 10.763s5.877 5.217 10.52 6.796l12.19 4.063c2.902.968 5.11 2.435 6.626 4.401 1.516 1.969 2.274 4.324 2.274 7.063 0 3.193-1.04 5.789-3.12 7.789s-4.797 2.997-8.15 2.997c-3.162 0-6.023-.847-8.586-2.538-2.564-1.693-4.717-4.167-6.458-7.425v-6.144H.096v23.557h8.755v-4.353c2.225 1.935 4.58 3.377 7.062 4.329 2.483.951 5.175 1.428 8.078 1.428 6.417 0 11.536-1.832 15.357-5.491 3.821-3.66 5.733-8.538 5.733-14.633 0-4.837-1.234-8.858-3.701-12.068-2.467-3.209-6.215-5.698-11.246-7.474zm64.294 8.854c0-7.224-1.427-12.384-4.281-15.479-2.854-3.097-7.506-4.645-13.955-4.645-5.128 0-9.489 1.017-13.084 3.049-3.596 2.031-6.168 4.917-7.715 8.657l8.416 2.177c1.549-2.16 3.257-3.74 5.128-4.74 1.87-1 4.046-1.5 6.53-1.5 3.514 0 6.095 1.016 7.738 3.048 1.645 2.032 2.467 5.24 2.467 9.625v2.854c-2.838-1.16-5.393-2.022-7.666-2.589-2.274-.562-4.297-.844-6.07-.844-5.16 0-9.312 1.45-12.455 4.353-3.145 2.902-4.717 6.722-4.717 11.464 0 4.58 1.459 8.287 4.377 11.124 2.919 2.837 6.748 4.258 11.489 4.258 2.772 0 5.4-.484 7.884-1.453 2.482-.965 4.982-2.467 7.498-4.498v4.547h15.72v-8.513h-7.304v-20.895zm-8.416 15.912c-2.774 2.032-5.281 3.533-7.522 4.499-2.242.968-4.33 1.452-6.264 1.452-2.322 0-4.225-.637-5.708-1.912-1.484-1.273-2.225-2.878-2.225-4.813 0-2.129.854-3.844 2.563-5.15 1.71-1.307 3.967-1.959 6.773-1.959 1.805 0 3.643.321 5.514.966 1.87.647 4.16 1.774 6.869 3.387v3.53zm36.625-34.826h-15.526v7.982h6.82v31.827h-6.82v8.513h22.686v-8.513h-7.16v-39.81zm-5.03-9.045c1.612 0 2.975-.548 4.088-1.645 1.112-1.095 1.667-2.466 1.667-4.11 0-1.516-.572-2.83-1.716-3.943-1.145-1.112-2.491-1.67-4.039-1.67-1.58 0-2.918.55-4.014 1.645-1.098 1.098-1.645 2.419-1.645 3.967 0 1.677.539 3.056 1.62 4.135 1.08 1.082 2.426 1.62 4.04 1.62zm61.44 26.266c0-6.806-.88-11.392-2.637-13.762-1.758-2.37-4.748-3.554-8.973-3.554-2.612 0-5.248.596-7.909 1.788-2.66 1.195-5.603 3.095-8.827 5.708v-7.401h-15.14v7.982h6.82v31.827h-6.82v8.513h22.686v-8.513h-7.159v-24.669c2.419-2.579 4.684-4.467 6.796-5.659 2.112-1.192 4.216-1.79 6.312-1.79 2.323 0 3.926.749 4.813 2.25.887 1.499 1.33 5.119 1.33 10.859v27.522h15.818v-8.513h-7.11v-22.588zm27.242-30.91l-8.707 7.208v6.48h-6.336v7.983h6.336v28.44c0 5.321.75 8.869 2.25 10.642 1.499 1.774 4.119 2.662 7.86 2.662 1.29 0 2.57-.139 3.845-.411a21.136 21.136 0 0 0 3.748-1.188v-8.415c-1.096.484-2.039.832-2.83 1.04-.79.21-1.555.315-2.296.315-1.451 0-2.46-.428-3.023-1.282-.565-.854-.847-2.458-.847-4.813v-26.99h8.996v-7.982h-8.996v-13.689zm42.101 1.694h8.127v51.707c0 7.063-.638 11.447-1.91 13.157-1.275 1.708-3.54 2.562-6.797 2.562-.742 0-1.491-.063-2.25-.192a17.211 17.211 0 0 1-2.345-.581v9.094c.903.224 1.854.387 2.854.485 1 .095 2.128.143 3.386.143 5.933 0 10.23-1.628 12.89-4.885 2.66-3.256 3.992-8.56 3.992-15.912v-55.578h8.222v-8.418H248.39v8.418zm67.099 50.546c-2.708 1.484-5.628 2.226-8.755 2.226-4.482 0-8.102-1.282-10.86-3.846-2.756-2.565-4.2-5.956-4.329-10.183h37.972c0-8.866-2.056-15.744-6.168-20.63-4.11-4.885-9.892-7.328-17.34-7.328-7.191 0-13.012 2.331-17.462 6.99s-6.676 10.81-6.676 18.453c0 7.74 2.241 13.924 6.724 18.552 4.482 4.627 10.496 6.941 18.042 6.941 5.095 0 9.594-1.146 13.495-3.435 3.902-2.29 7.094-5.643 9.578-10.061l-7.642-3.966c-1.678 2.708-3.87 4.805-6.58 6.287zm-19.034-28.37c2.403-2.24 5.588-3.362 9.553-3.362 4 0 7.176 1.098 9.53 3.29 2.353 2.194 3.772 5.355 4.256 9.481h-27.426c.322-4.031 1.685-7.165 4.087-9.408zm81.394 8.733c0-7.224-1.426-12.384-4.28-15.479-2.854-3.097-7.506-4.645-13.956-4.645-5.127 0-9.489 1.017-13.083 3.049-3.596 2.031-6.168 4.917-7.716 8.657l8.416 2.177c1.549-2.16 3.257-3.74 5.128-4.74 1.87-1 4.046-1.5 6.53-1.5 3.515 0 6.095 1.016 7.737 3.048 1.647 2.032 2.47 5.24 2.47 9.625v2.854c-2.84-1.16-5.394-2.022-7.668-2.589-2.274-.562-4.297-.844-6.07-.844-5.16 0-9.312 1.45-12.455 4.353-3.145 2.902-4.717 6.722-4.717 11.464 0 4.58 1.46 8.287 4.378 11.124s6.748 4.258 11.488 4.258c2.773 0 5.4-.484 7.885-1.453 2.483-.965 4.981-2.467 7.497-4.498v4.547h15.72v-8.513h-7.304v-20.895zm-8.416 15.912c-2.774 2.032-5.28 3.533-7.522 4.499-2.242.968-4.33 1.452-6.264 1.452-2.322 0-4.225-.637-5.708-1.912-1.484-1.273-2.225-2.878-2.225-4.813 0-2.129.854-3.844 2.564-5.15 1.709-1.307 3.967-1.959 6.772-1.959 1.805 0 3.644.321 5.515.966 1.87.647 4.158 1.774 6.868 3.387v3.53zm64.583 4.983v-22.588c0-6.806-.879-11.392-2.638-13.762-1.756-2.37-4.747-3.554-8.97-3.554-2.613 0-5.248.596-7.91 1.788-2.66 1.195-5.603 3.095-8.827 5.708v-7.401H390.53v7.982h6.822v31.827h-6.822v8.513h22.686v-8.513h-7.158v-24.669c2.418-2.579 4.683-4.467 6.795-5.659 2.112-1.192 4.217-1.79 6.314-1.79 2.32 0 3.924.749 4.812 2.25.886 1.499 1.329 5.119 1.329 10.859v27.522h15.817v-8.513h-7.11z" fill="#303030"/><path d="M315.682 201.278h-17.547v4.647h4.647v28.387h-4.647v4.914h17.547c5.944 0 10.562-1.659 13.847-4.98 3.284-3.321 4.927-7.99 4.927-14.007 0-6-1.643-10.66-4.927-13.98-3.285-3.322-7.903-4.98-13.847-4.98zm9.4 29.389c-2.227 2.394-5.519 3.591-9.881 3.591h-6.998v-28.333h7.69c4.008 0 7.096 1.229 9.268 3.684 2.173 2.457 3.258 5.949 3.258 10.47 0 4.663-1.112 8.194-3.338 10.588zm27.673-18.788c-3.971 0-7.185 1.287-9.643 3.859-2.457 2.574-3.686 5.97-3.686 10.19 0 4.218 1.229 7.62 3.686 10.201 2.458 2.581 5.672 3.871 9.643 3.871 3.987 0 7.218-1.294 9.693-3.886 2.474-2.588 3.713-5.985 3.713-10.187 0-4.185-1.239-7.571-3.713-10.163-2.475-2.588-5.706-3.885-9.693-3.885zm5.9 20.751c-1.424 1.62-3.392 2.43-5.9 2.43-2.477 0-4.436-.819-5.876-2.456-1.443-1.638-2.163-3.881-2.163-6.73 0-2.866.715-5.114 2.148-6.745 1.433-1.627 3.397-2.442 5.89-2.442 2.526 0 4.5.81 5.915 2.43 1.414 1.62 2.122 3.871 2.122 6.757 0 2.883-.71 5.136-2.136 6.756zm35.417-20.082h-8.866v4.406h4.112v14.608c-1.335 1.424-2.586 2.465-3.752 3.124-1.165.66-2.328.988-3.484.988-1.282 0-2.177-.409-2.686-1.229-.506-.817-.759-2.615-.759-5.394v-16.503h-8.734v4.406h3.926v13.46c0 3.74.49 6.272 1.47 7.598.978 1.326 2.642 1.988 4.993 1.988 1.425 0 2.86-.328 4.313-.988 1.45-.657 3.076-1.718 4.874-3.177v3.391h8.41v-4.7h-3.817v-21.978zm29.542 10.44c0-3.988-.788-6.834-2.362-8.545-1.577-1.708-4.146-2.564-7.706-2.564-2.83 0-5.238.562-7.223 1.684-1.986 1.121-3.404 2.715-4.26 4.78l4.647 1.202c.854-1.194 1.798-2.065 2.832-2.618 1.031-.552 2.233-.827 3.603-.827 1.942 0 3.365.56 4.275 1.681.907 1.122 1.36 2.893 1.36 5.314v1.577c-1.567-.64-2.976-1.117-4.231-1.428-1.256-.312-2.375-.467-3.353-.467-2.849 0-5.14.8-6.876 2.403-1.737 1.601-2.603 3.71-2.603 6.329 0 2.528.805 4.576 2.416 6.14 1.61 1.568 3.725 2.351 6.343 2.351 1.53 0 2.98-.265 4.353-.8 1.37-.533 2.749-1.363 4.138-2.485v2.511h8.679v-4.7h-4.032v-11.538zm-4.647 8.788c-1.53 1.122-2.914 1.95-4.153 2.482-1.236.535-2.39.803-3.457.803-1.282 0-2.334-.353-3.151-1.056-.82-.703-1.229-1.589-1.229-2.657 0-1.175.472-2.124 1.416-2.844.942-.72 2.19-1.08 3.737-1.08.998 0 2.013.177 3.047.532 1.031.358 2.296.981 3.79 1.869v1.951zm19.7-25.13c.616-.606.923-1.363.923-2.27 0-.838-.317-1.563-.95-2.176-.63-.615-1.374-.922-2.228-.922-.873 0-1.61.302-2.216.908a2.983 2.983 0 0 0-.908 2.19c0 .926.297 1.686.893 2.284.596.596 1.34.893 2.231.893s1.643-.302 2.256-.908zm.521 5.902h-8.571v4.406h3.766v17.572h-3.766v4.7h12.525v-4.7h-3.954v-21.978zm59.111-30.131c-4.936-8.914-10.265-17.64-16.261-25.906-6.031-8.23-12.415-16.23-19.414-23.67-7.012-7.42-14.388-14.5-22.188-21.08-7.854-6.514-16.023-12.648-24.583-18.177-17.064-11.086-35.421-20.361-54.836-26.234 9.376 3.821 18.428 8.311 27.172 13.32 8.795 4.91 17.265 10.36 25.492 16.121 16.422 11.57 31.675 24.75 45.3 39.445 13.723 14.613 25.64 30.853 35.931 48.09 10.05 17.381 18.458 35.766 25.114 54.9a241.08 241.08 0 0 0-21.727-56.81z" fill="#878787"/><path d="M471.804 128.11S494.89 55.622 538.8 9.587c1.663-1.744 4.545-1.475 5.86.544 2.466 3.784 5.235 10.556 2.852 20.088-3.858 15.431-49.186 79.565-75.708 97.89z" fill="#00b3e9"/><path d="M537.34 92.772S581.509 30.834 637.405.453c2.117-1.15 4.778-.012 5.412 2.312 1.188 4.358 1.751 11.652-3.436 19.997-8.396 13.509-71.183 60.686-102.041 70.01z" fill="#dedc00"/><path d="M511.171 132.176s62.823-42.9 125.769-52.135c2.384-.35 4.49 1.637 4.282 4.037-.387 4.5-2.375 11.541-10.122 17.585-12.542 9.783-87.748 32.405-119.929 30.513z" fill="#be007c"/></svg>